# xmcd
# 
# Track frame offsets:
#     150
#     15819
#     36811
#     53118
#     65371
#     91230
#     106626
#     123755
#     139550
#     153555
#     167009
#     182228
#     189061
#     200868
#     217772
#     233317
#     244187
#     252973
#     267009
#     283855
#     297795
#     318020
# 
# Disc length: 4530
# 
# Revision: 11
# Processed by: cddbd v1.5.2PL0 Copyright (c) Steve Scherf et al.
# Submitted via: fre:ac v1.0.31
# 
DISCID=1b11b016
DTITLE=80's - Left Of The Dial Disc 2
DYEAR=2004
DGENRE=Rock/Pop
TTITLE0=The Pretenders - Message Of Love
TTITLE1=Ultravox - Vienna
TTITLE2=Dinosaur Jr. - Freak Scene
TTITLE3=The Smiths - This Charming Man
TTITLE4=Ministry - Stigmata
TTITLE5=Lone Justice - Ways To Be Wicked
TTITLE6=Killing Joke - Wardance
TTITLE7=Orchestral Manoeuvres In The Dark - Enola Gay
TTITLE8=English Beat - Mirror In The Bathroom
TTITLE9=The Raincoats - Fairytale In The Supermarket
TTITLE10=The Smithereens - Behind The Wall Of Sleep
TTITLE11=Minutemen - Political Song For Michael Jackson To Sing
TTITLE12=Dead Milkmen - Punk Rock Girl
TTITLE13=Concrete Blonde - Still In Hollywood
TTITLE14=Joy Division - Love Will Tear Us Apart
TTITLE15=Violent Femmes - Blister In The Sun
TTITLE16=Meat Puppets - Lake Of Fire
TTITLE17=The dB's - Amplifier
TTITLE18=Prefab Sprout - When Love Breaks Down
TTITLE19=The Cramps - Goo Goo Muck
TTITLE20=Sisters Of Mercy - This Corrosion
TTITLE21=XTC - Senses Working Overtime
EXTD=
EXTT0=
EXTT1=
EXTT2=
EXTT3=
EXTT4=
EXTT5=
EXTT6=
EXTT7=
EXTT8=
EXTT9=
EXTT10=
EXTT11=
EXTT12=
EXTT13=
EXTT14=
EXTT15=
EXTT16=
EXTT17=
EXTT18=
EXTT19=
EXTT20=
EXTT21=
PLAYORDER=
